<svg height="512" viewBox="0 0 64 64" width="512" xmlns="http://www.w3.org/2000/svg"><g id="books-bookshelves-bookshelf-file-book"><path d="m61 35v8h-16a4 4 0 1 1 0-8z" fill="#ff7956"/><path d="m61 54a3 3 0 0 1 -3 3h-52a3 3 0 0 1 0-6h52a3 3 0 0 1 3 3z" fill="#806749"/><path d="m61 54a3 3 0 0 1 -3 3h-4a3 3 0 0 0 0-6h4a3 3 0 0 1 3 3z" fill="#6a563d"/><path d="m47 57h10v4h-10z" fill="#6a563d"/><path d="m52 57h5v4h-5z" fill="#5f4d37"/><path d="m57 43v8h-16a4 4 0 1 1 0-8z" fill="#fee9ab"/><path d="m57 27v8h-16a4 4 0 1 1 0-8z" fill="#fee9ab"/><path d="m53 27h4v8h-4z" fill="#ffde55"/><path d="m53 43h4v8h-4z" fill="#ffde55"/><path d="m57 35h4v8h-4z" fill="#ff5023"/><path d="m33 13v38h-14v-38a2.006 2.006 0 0 1 2-2h10a2.006 2.006 0 0 1 2 2z" fill="#ff7956"/><path d="m33 13v38h-4v-38a2.006 2.006 0 0 0 -2-2h4a2.006 2.006 0 0 1 2 2z" fill="#ff5023"/><path d="m23 37h6v10h-6z" fill="#fee9ab"/><path d="m26 37h3v10h-3z" fill="#ffde55"/><path d="m19 13v38h-14v-38a2.006 2.006 0 0 1 2-2h10a2.006 2.006 0 0 1 2 2z" fill="#fee9ab"/><path d="m19 13v38h-4v-38a2.006 2.006 0 0 0 -2-2h4a2.006 2.006 0 0 1 2 2z" fill="#ffde55"/><path d="m7 57h10v4h-10z" fill="#6a563d"/><path d="m9 37h6v10h-6z" fill="#c0ab91"/><path d="m12 37h3v10h-3z" fill="#a78966"/><path d="m12 57h5v4h-5z" fill="#5f4d37"/><path d="m8 16h8v2h-8z"/><path d="m8 22h8v2h-8z"/><path d="m8 28h8v2h-8z"/><path d="m22 16h8v2h-8z"/><path d="m22 22h8v2h-8z"/><path d="m22 28h8v2h-8z"/><path d="m15 36h-6a1 1 0 0 0 -1 1v10a1 1 0 0 0 1 1h6a1 1 0 0 0 1-1v-10a1 1 0 0 0 -1-1zm-1 10h-4v-8h4z"/><path d="m23 48h6a1 1 0 0 0 1-1v-10a1 1 0 0 0 -1-1h-6a1 1 0 0 0 -1 1v10a1 1 0 0 0 1 1zm1-10h4v8h-4z"/><path d="m61 44a1 1 0 0 0 1-1v-8a1 1 0 0 0 -1-1h-3v-7a1 1 0 0 0 -1-1h-16a5 5 0 0 0 0 10h.03a4.884 4.884 0 0 0 0 6h-.03a5 5 0 0 0 -5 5 4.924 4.924 0 0 0 1.03 3h-3.03v-37a3.009 3.009 0 0 0 -3-3h-10a2.974 2.974 0 0 0 -2 .78 2.974 2.974 0 0 0 -2-.78h-10a3.009 3.009 0 0 0 -3 3v37.56a3.985 3.985 0 0 0 2 7.44v3a1 1 0 0 0 1 1h10a1 1 0 0 0 1-1v-3h28v3a1 1 0 0 0 1 1h10a1 1 0 0 0 1-1v-3a4 4 0 0 0 0-8v-6zm-20-10a3 3 0 0 1 0-6h15v2h-15v2h15v2zm0 10h15v2h-15v2h15v2h-15a3 3 0 0 1 0-6zm-21-31a1 1 0 0 1 1-1h10a1 1 0 0 1 1 1v37h-12zm-14 0a1 1 0 0 1 1-1h10a1 1 0 0 1 1 1v37h-12zm10 47h-8v-2h8zm40 0h-8v-2h8zm4-6a2.006 2.006 0 0 1 -2 2h-52a2 2 0 0 1 0-4h52a2.006 2.006 0 0 1 2 2zm-15-12a3 3 0 0 1 0-6h15v2h-15v2h15v2z"/></g></svg>